<svg width="43" height="41" viewBox="0 0 43 41" fill="none" xmlns="http://www.w3.org/2000/svg">
<path fill-rule="evenodd" clip-rule="evenodd" d="M0 18.1232C0 8.11403 8.10317 0 18.0989 0H36.5612C41.909 0 44.5281 6.52699 40.6671 10.2321L32.6494 17.926C31.1868 19.3295 31.1868 21.6705 32.6494 23.074L40.6671 30.7679C44.5281 34.473 41.909 41 36.5612 41H18.0989C8.10317 41 0 32.886 0 22.8768V18.1232ZM23.0625 8.44116C23.0625 9.60664 22.1177 10.5515 20.9522 10.5515C19.7867 10.5515 18.8419 9.60664 18.8419 8.44116C18.8419 7.27568 19.7867 6.33087 20.9522 6.33087C22.1177 6.33087 23.0625 7.27568 23.0625 8.44116ZM32.408 10.5515C33.5735 10.5515 34.5183 9.60664 34.5183 8.44116C34.5183 7.27568 33.5735 6.33087 32.408 6.33087C31.2425 6.33087 30.2977 7.27568 30.2977 8.44116C30.2977 9.60664 31.2425 10.5515 32.408 10.5515Z" fill="#010101"/>
</svg>
